<svg id="Objects" xmlns="http://www.w3.org/2000/svg" xmlns:xlink="http://www.w3.org/1999/xlink" viewBox="0 0 682.17 170.65">
  <defs>
    <style>
      .cls-1 {
        fill: none;
      }

      .cls-2 {
        clip-path: url(#clip-path);
      }

      .cls-3 {
        fill: #fff;
      }

      .cls-22, .cls-4 {
        opacity: 0.3;
      }

      .cls-5 {
        fill: url(#linear-gradient);
      }

      .cls-6 {
        fill: url(#linear-gradient-2);
      }

      .cls-7 {
        fill: url(#linear-gradient-3);
      }

      .cls-15, .cls-16, .cls-17, .cls-18, .cls-19, .cls-20, .cls-21, .cls-23, .cls-24, .cls-25, .cls-8 {
        opacity: 0.2;
      }

      .cls-9 {
        fill: url(#linear-gradient-4);
      }

      .cls-10 {
        fill: url(#linear-gradient-5);
      }

      .cls-11 {
        fill: url(#linear-gradient-6);
      }

      .cls-12 {
        fill: url(#linear-gradient-7);
      }

      .cls-13 {
        fill: url(#linear-gradient-8);
      }

      .cls-14 {
        fill: url(#linear-gradient-9);
      }

      .cls-15 {
        fill: url(#linear-gradient-10);
      }

      .cls-16, .cls-20 {
        fill: #97dfff;
      }

      .cls-17, .cls-18, .cls-19, .cls-20, .cls-21, .cls-22, .cls-23, .cls-24, .cls-25 {
        stroke: #fff;
        stroke-miterlimit: 10;
      }

      .cls-17 {
        fill: url(#linear-gradient-11);
      }

      .cls-18 {
        fill: url(#linear-gradient-12);
      }

      .cls-19 {
        fill: url(#linear-gradient-13);
      }

      .cls-21 {
        fill: url(#linear-gradient-14);
      }

      .cls-22 {
        fill: url(#linear-gradient-15);
      }

      .cls-23 {
        fill: url(#linear-gradient-16);
      }

      .cls-24 {
        fill: url(#linear-gradient-17);
      }

      .cls-25 {
        fill: url(#linear-gradient-18);
      }

      .cls-26 {
        fill: url(#linear-gradient-19);
      }

      .cls-27 {
        fill: url(#linear-gradient-20);
      }
    </style>
    <clipPath id="clip-path">
      <rect class="cls-1" width="682.17" height="170.65"/>
    </clipPath>
    <linearGradient id="linear-gradient" x1="269.61" y1="-0.86" x2="269.61" y2="171.51" gradientUnits="userSpaceOnUse">
      <stop offset="0" stop-color="#97dfff"/>
      <stop offset="0.14" stop-color="#8ad5f9"/>
      <stop offset="0.39" stop-color="#67bcea"/>
      <stop offset="0.74" stop-color="#3094d1"/>
      <stop offset="1" stop-color="#0071bc"/>
    </linearGradient>
    <linearGradient id="linear-gradient-2" x1="220.08" y1="-0.86" x2="220.08" y2="171.51" gradientUnits="userSpaceOnUse">
      <stop offset="0" stop-color="#97dfff"/>
      <stop offset="0.18" stop-color="#8ad9fc"/>
      <stop offset="0.51" stop-color="#67c8f2"/>
      <stop offset="0.95" stop-color="#30aee4"/>
      <stop offset="1" stop-color="#29abe2"/>
    </linearGradient>
    <linearGradient id="linear-gradient-3" x1="222" y1="-0.86" x2="222" y2="171.51" gradientUnits="userSpaceOnUse">
      <stop offset="0" stop-color="#fff"/>
      <stop offset="0.1" stop-color="#f2fafd"/>
      <stop offset="0.3" stop-color="#cfecf9"/>
      <stop offset="0.56" stop-color="#97d6f1"/>
      <stop offset="0.87" stop-color="#4ab8e6"/>
      <stop offset="1" stop-color="#29abe2"/>
    </linearGradient>
    <linearGradient id="linear-gradient-4" x1="258.34" y1="80.19" x2="212.03" y2="160.4" gradientUnits="userSpaceOnUse">
      <stop offset="0" stop-color="#97dfff"/>
      <stop offset="1" stop-color="#97dfff"/>
    </linearGradient>
    <linearGradient id="linear-gradient-5" x1="214.5" y1="54.88" x2="131.03" y2="199.45" xlink:href="#linear-gradient"/>
    <linearGradient id="linear-gradient-6" x1="-3.01" y1="85.32" x2="477.53" y2="85.32" gradientUnits="userSpaceOnUse">
      <stop offset="0" stop-color="#29abe2"/>
      <stop offset="0.06" stop-color="#53bce8"/>
      <stop offset="0.12" stop-color="#7bcbed"/>
      <stop offset="0.19" stop-color="#9fd9f2"/>
      <stop offset="0.27" stop-color="#bce5f6"/>
      <stop offset="0.35" stop-color="#d5eff9"/>
      <stop offset="0.45" stop-color="#e7f6fc"/>
      <stop offset="0.56" stop-color="#f4fbfe"/>
      <stop offset="0.7" stop-color="#fcfeff"/>
      <stop offset="1" stop-color="#feffff"/>
    </linearGradient>
    <linearGradient id="linear-gradient-7" x1="132.31" y1="-0.86" x2="132.31" y2="171.51" gradientUnits="userSpaceOnUse">
      <stop offset="0" stop-color="#fff"/>
      <stop offset="0.1" stop-color="#f5fbfe"/>
      <stop offset="0.26" stop-color="#daf0fa"/>
      <stop offset="0.48" stop-color="#aedff4"/>
      <stop offset="0.73" stop-color="#70c7ec"/>
      <stop offset="1" stop-color="#29abe2"/>
    </linearGradient>
    <linearGradient id="linear-gradient-8" x1="32.37" y1="-0.86" x2="32.37" y2="171.51" xlink:href="#linear-gradient-7"/>
    <linearGradient id="linear-gradient-9" x1="-3.88" y1="85.32" x2="71.02" y2="85.32" gradientUnits="userSpaceOnUse">
      <stop offset="0" stop-color="#97dfff"/>
      <stop offset="0.16" stop-color="#8ddafc"/>
      <stop offset="0.44" stop-color="#72cdf5"/>
      <stop offset="0.79" stop-color="#46b9ea"/>
      <stop offset="1" stop-color="#29abe2"/>
    </linearGradient>
    <linearGradient id="linear-gradient-10" x1="341.9" y1="79.47" x2="523.26" y2="79.47" gradientUnits="userSpaceOnUse">
      <stop offset="0" stop-color="#97dfff"/>
      <stop offset="0.1" stop-color="#a4e3ff"/>
      <stop offset="0.51" stop-color="#d5f2ff"/>
      <stop offset="0.82" stop-color="#f4fbff"/>
      <stop offset="1" stop-color="#fff"/>
    </linearGradient>
    <linearGradient id="linear-gradient-11" x1="282.26" y1="120.61" x2="625.45" y2="120.61" xlink:href="#linear-gradient-10"/>
    <linearGradient id="linear-gradient-12" x1="654.43" y1="171.51" x2="654.43" y2="-0.86" xlink:href="#linear-gradient-10"/>
    <linearGradient id="linear-gradient-13" x1="186.96" y1="71.54" x2="495.05" y2="71.54" xlink:href="#linear-gradient-10"/>
    <linearGradient id="linear-gradient-14" x1="197.84" y1="171.51" x2="197.84" y2="-0.86" xlink:href="#linear-gradient"/>
    <linearGradient id="linear-gradient-15" x1="-3.45" y1="109.02" x2="122.52" y2="109.02" xlink:href="#linear-gradient"/>
    <linearGradient id="linear-gradient-16" x1="-3.45" y1="85.32" x2="686.04" y2="85.32" xlink:href="#linear-gradient-2"/>
    <linearGradient id="linear-gradient-17" x1="-3.45" y1="42.18" x2="242.62" y2="42.18" xlink:href="#linear-gradient-2"/>
    <linearGradient id="linear-gradient-18" x1="-3.45" y1="78.39" x2="199.23" y2="78.39" gradientUnits="userSpaceOnUse">
      <stop offset="0" stop-color="#0071bc"/>
      <stop offset="0.05" stop-color="#0d78bf"/>
      <stop offset="0.15" stop-color="#308cc9"/>
      <stop offset="0.28" stop-color="#68abd7"/>
      <stop offset="0.44" stop-color="#b5d6ec"/>
      <stop offset="0.58" stop-color="#fff"/>
      <stop offset="1" stop-color="#6fccf4"/>
    </linearGradient>
    <linearGradient id="linear-gradient-19" x1="-3.45" y1="85.32" x2="686.04" y2="85.32" gradientUnits="userSpaceOnUse">
      <stop offset="0" stop-color="#fff" stop-opacity="0"/>
      <stop offset="0.47" stop-color="#fff" stop-opacity="0.4"/>
      <stop offset="0.58" stop-color="#fff" stop-opacity="0.5"/>
      <stop offset="0.59" stop-color="#fff" stop-opacity="0.51"/>
      <stop offset="0.65" stop-color="#fff" stop-opacity="0.66"/>
      <stop offset="0.71" stop-color="#fff" stop-opacity="0.78"/>
      <stop offset="0.77" stop-color="#fff" stop-opacity="0.88"/>
      <stop offset="0.84" stop-color="#fff" stop-opacity="0.95"/>
      <stop offset="0.91" stop-color="#fff" stop-opacity="0.99"/>
      <stop offset="1" stop-color="#fff"/>
    </linearGradient>
    <linearGradient id="linear-gradient-20" x1="-3.45" y1="159.83" x2="46.92" y2="159.83" xlink:href="#linear-gradient-19"/>
  </defs>
  <title>background</title>
  <g class="cls-2">
    <g>
      <rect class="cls-3" x="-3.45" y="-0.86" width="689.49" height="172.37"/>
      <g class="cls-4">
        <polygon class="cls-5" points="308.95 -0.86 137.06 -0.86 60.84 10.82 68.23 171.51 478.37 171.51 308.95 -0.86"/>
        <path class="cls-3" d="M309-.86l-171.9.27h0L60.89,11.14l.27-.33,7.49,160.68-.42-.4,205.07,0,205.07.13-.23.54Zm0,0L478.59,171.29l.53.54h-.76L273.3,172l-205.07,0h-.4l0-.4L60.52,10.84v-.29l.29,0L137-1.13h0Z"/>
      </g>
      <g class="cls-4">
        <polygon class="cls-6" points="71.74 171.51 315.49 171.51 368.43 -0.86 98.11 -0.86 71.74 171.51"/>
        <path class="cls-3" d="M71.74,171.51l243.76-.35-.34.25L368-1l.47.64L98.11-.56l.3-.25Zm0,0L97.81-.91l0-.25h.26l270.32-.19h.67l-.2.64L315.83,171.61l-.08.25h-.26Z"/>
      </g>
      <g class="cls-4">
        <polygon class="cls-7" points="68.54 171.51 384.5 171.51 379.75 -0.86 59.5 -0.86 68.54 171.51"/>
        <path class="cls-3" d="M68.54,171.51l316-.38-.38.39L379.25-.85l.5.48L59.5-.58l.28-.3Zm0,0L59.22-.85l0-.3h.3l320.25-.21h.48v.48l4.64,172.37v.39h-.39Z"/>
      </g>
      <g class="cls-8">
        <polygon class="cls-9" points="192.87 42.39 231.27 171.51 292.89 171.51 192.87 42.39"/>
        <path class="cls-3" d="M192.87,42.39l38.8,129-.4-.3,30.81-.06q15.4,0,30.81,0l-.37.76Zm0,0L293.26,171.22l.59.76h-1q-15.4,0-30.81,0l-30.81-.06H231l-.09-.3Z"/>
      </g>
      <g class="cls-4">
        <polygon class="cls-10" points="192.87 42.39 82.64 171.51 211.69 171.51 192.87 42.39"/>
        <path class="cls-3" d="M192.87,42.39,83,171.79l-.33-.71L114.9,171h32.26l64.53.1-.36.42Zm0,0,19.18,129.07.06.42h-.43l-64.53.1H114.9l-32.26-.05h-.93l.61-.71Z"/>
      </g>
      <g class="cls-4">
        <polygon class="cls-11" points="456.29 171.51 477.53 171.51 308.65 -0.86 -3.01 -0.86 -3.01 19.69 456.29 171.51"/>
        <path class="cls-3" d="M456.29,171.51l21.25,0,0,.07L308.42-.63l.23.1L-3-.38l.48-.48V19.69l-.32-.44,229.58,76Zm0,0L226.56,95.91-3.16,20.13-3.48,20V-1.34H-3l311.66.15h.14l.1.1L477.56,171.48l.06.07h-.09Z"/>
      </g>
      <g class="cls-4">
        <polygon class="cls-12" points="71.74 171.51 82.64 171.51 192.87 42.39 164.46 -0.86 98.11 -0.86 71.74 171.51"/>
        <path class="cls-3" d="M71.74,171.51l10.9,0,0,0L110,139.09l27.5-32.33,55-64.64,0,.5L164.05-.59l.41.22L98.11-.45l.41-.35-13.32,86Zm0,0L84.64,85.4,97.7-.92l.05-.35h.35l66.36-.08h.27l.15.22,28.35,43.29.17.26-.2.24L138,107.14l-27.62,32.23L82.67,171.54v0h0Z"/>
      </g>
      <g class="cls-4">
        <polygon class="cls-13" points="58.35 171.51 67.75 171.51 34.41 -0.86 -3.01 -0.86 -3.01 89.75 58.35 171.51"/>
        <path class="cls-3" d="M58.35,171.51l9.4,0,0,.05-8.54-43.05L50.76,85.38,34-.77l.45.37H-3l.48-.48-.15,90.61-.07-.2,30.57,40.9Zm0,0-30.84-40.7L-3.28,89.94l-.07-.09v-.11L-3.49-.86v-.48H34.79l.07.37L51.39,85.26l8.27,43.11,8.13,43.13v.05h-.05Z"/>
      </g>
      <g class="cls-4">
        <polygon class="cls-14" points="-3.88 -0.86 -3.88 34.28 65.33 171.51 71.02 171.51 62.89 -0.86 -3.88 -0.86"/>
        <path class="cls-3" d="M-3.88-.86l.16,35.14,0-.07L13.67,68.46,31,102.74,65.73,171.3l-.41-.25H71l-.46.49-2-43.09-2-43.1L62.62-.85l.27.25Zm0,0,66.77-.27h.25v.26l4.2,86.18,2.1,43.09,2,43.09,0,.49H65l-.13-.25L30.42,103,13.18,68.71-4,34.35l0,0v0Z"/>
      </g>
      <polygon class="cls-15" points="431.63 159.81 523.26 -0.86 341.89 -0.86 431.63 159.81"/>
      <polygon class="cls-16" points="448.4 106.95 367.64 171.51 594.43 171.51 448.4 106.95"/>
      <polygon class="cls-17" points="282.26 171.51 616.33 171.51 625.45 165.12 409.62 69.7 282.26 171.51"/>
      <polygon class="cls-18" points="686.04 171.51 686.04 -0.86 674.89 -0.86 622.81 171.51 686.04 171.51"/>
      <polygon class="cls-16" points="-3.44 73.62 -3.44 171.51 132.8 171.51 153.77 161.78 153.77 77.41 145.21 73.62 -3.44 73.62"/>
      <polygon class="cls-19" points="288.47 143.95 495.05 -0.86 186.96 -0.86 288.47 143.95"/>
      <polygon class="cls-20" points="323.2 -0.86 -3.44 -0.86 -3.44 155.84 323.2 -0.86"/>
      <polygon class="cls-20" points="686.04 171.51 686.04 127.67 494.86 171.51 686.04 171.51"/>
      <polygon class="cls-20" points="-3.44 73.76 -3.44 171.51 49.87 171.51 243.78 100.48 206.71 -0.86 74.99 -0.86 -3.44 73.76"/>
      <polygon class="cls-21" points="212.47 171.51 279.85 -0.86 115.83 -0.86 122.16 171.51 212.47 171.51"/>
      <polygon class="cls-22" points="-3.44 171.51 92.94 171.51 122.52 95.84 -3.44 46.53 -3.44 171.51"/>
      <path class="cls-23" d="M686,165.42C368.88,170.37,243.4,59.54,198.7-.86H-3.45V171.51H686Z"/>
      <path class="cls-24" d="M-3.45,85.22C45.16,60.53,132.11,22.33,242.62-.86H-3.45Z"/>
      <path class="cls-25" d="M199.23-.86H-3.45v158.5C36.72,75.2,131.34,25.45,199.23-.86Z"/>
      <g class="cls-4">
        <path class="cls-26" d="M383,151.85,412,49.51l274,4.06v-.43L412.13,49.08l6.34-22.39L545.55-.86h-2L418.6,26.23,426.27-.86h-.45l-7.7,27.19-59.3,12.86L410.15-.86h-.7L357.86,39.4l-38.33,8.31-41.7-.62,42.06-24.25-78-16.6,8.16-7.1h-.66l-8,7L214.31.37l-.17-1.23h-.44l.16,1.13L208.53-.86h-2.07L213.92.73l3.59,26.18-21.79,19-35.56-.53-24.61-21.8,46-24.42h-.92L135.21,23.25,108-.86h-.65l27.47,24.33L95.42,44.39l-17.67-.26L59.87-.86h-.46l17.87,45-80.73-1.2v.43l80.9,1.2,3.08,7.75-60.2,32L-3.45,70.84v.49L19.88,84.53-3.45,96.92v.49L20.33,84.78l35.56,20.11L-3.45,117.75v.44l59.89-13,43.13,24.39L51.44,171.51h.66L100,129.82l14.64,8.28.85,2.13L61.23,171.51h.86l53.54-30.87,12.27,30.87h.46L116,140.42l1.34-.78,56.36,31.87h.88l-56.8-32.12,89.58-51.66,21,18.64,4.22,30.77-44,34.37h.7l43.4-33.88,4.64,33.88h.44l-4.69-34.18,16.09-12.56L302,171.51h.65l-53.08-47,97.31-75.95,64.72,1L382.55,152l-68.37,19.52h1.57l66.66-19-5.39,19h.45l5.43-19.18M317.67,48.12,251,62.58,277.1,47.52Zm-94,20.39-3-21.83,55.6.82L249.6,62.88Zm24.72-4.92L224.84,77.16l-1.13-8.22Zm-6.87-57L318.7,23,277,47.08l-56.39-.84L218,27.08ZM214.37.82,241,6.48,217.9,26.57Zm3.21,26.6,2.58,18.82-23.79-.35Zm-21.7,18.89,24.34.36,3,21.92L193.65,75,178.42,61.52Zm-2.75,28.81-40.4,8.76L178.09,61.8Zm2.11-28.82L178.1,61.23,160.66,45.79ZM135.15,23.77l24.36,21.57-63.19-.94ZM95.52,44.82l64.48,1,17.77,15.74L151.86,84.07,98.24,95.7,81.08,52.5Zm55.66,39.84-42.6,37.09L98.4,96.11ZM77.92,44.56l16.71.25L80.92,52.1Zm-57.14,40L80.69,52.71,97.81,95.79l-41.29,9Zm79.15,44.75L57.08,105.07,98,96.2l10.27,25.85Zm.4.23,8.09-7,6,15ZM115.84,140l-.63-1.58,1.7,1Zm1.5-.87L115,137.8l-6.21-15.62,43.3-37.7,41.47-9,13.49,12Zm76.71-63.78L223.29,69l1.15,8.36-17,9.81ZM207.76,87.5l16.74-9.65,3.82,27.86ZM233,136.83l-4.12-30,20,17.67Zm16.18-12.63-20.39-18.06L224.9,77.62l24.85-14.33,69.82-15.14,26.58.39Zm97.5-76.09-25.26-.37L357.08,40Zm.69,0L358,39.8,418,26.8l-6.31,22.28Z"/>
        <polygon class="cls-27" points="46.92 171.51 -3.44 148.16 -3.44 148.63 45.9 171.51 46.92 171.51"/>
      </g>
    </g>
  </g>
</svg>
