<svg id="Layer_1" data-name="Layer 1" xmlns="http://www.w3.org/2000/svg" viewBox="0 0 249 71">
  <defs>
    <style>
      .cls-1 {
        fill: #009fe3;
      }
    </style>
  </defs>
  <title>oysters_logo</title>
  <path d="M1,11.26c11-8.79,27.75-8.76,38.74,0-1.16,1.41-2.32,2.8-3.47,4.21-9.1-7.27-22.75-7.15-31.9,0Z"/>
  <path d="M71,15.87h6.4c-4.33,6.71-8.52,13.51-12.85,20.22-.58,1-1.47,2-1.37,3.3-.05,5.27,0,10.53,0,15.8H57.45c0-5.59,0-11.19,0-16.78C52.68,30.94,48.12,23.34,43.3,15.9l6.72,0c3.46,5.67,7,11.32,10.45,17C64,27.21,67.51,21.52,71,15.87Z"/>
  <path d="M87.12,17.61c5.9-3.93,14.32-2.78,19.44,2-1,1.48-2.1,2.95-3.13,4.43-3.14-3.06-8.19-4.48-12.18-2.3-3.12,1.69-2.88,6.71,0,8.5,4.25,3,9.86,3.6,13.68,7.27a10.41,10.41,0,0,1-.78,15.16c-6.53,5.21-17.54,3.85-22.36-3.07,1.12-1.32,2.21-2.65,3.31-4,3.36,4.06,9.64,6.37,14.44,3.5,3-1.74,3-6.44.23-8.39-4.13-3.16-9.68-3.83-13.61-7.34C81.56,29.36,82,21,87.12,17.61Z"/>
  <path d="M112.81,15.88q16.43,0,32.84,0c0,1.75,0,3.51,0,5.27-4.5,0-9,0-13.51,0,0,11.34,0,22.67,0,34h-5.79c0-11.34,0-22.68,0-34-4.53,0-9.05,0-13.58,0Z"/>
  <path d="M153.67,15.88q11.43,0,22.86,0c0,1.76,0,3.52,0,5.28-5.7,0-11.4,0-17.1,0,0,3.81,0,7.63,0,11.44,5.14,0,10.28,0,15.43,0,0,1.77,0,3.55,0,5.33-5.17,0-10.33,0-15.5,0q0,5.93,0,11.83c5.92,0,11.83,0,17.75,0,0,1.78,0,3.56,0,5.33-7.83.07-15.65,0-23.47,0C153.68,42.09,153.7,29,153.67,15.88Z"/>
  <path d="M229,17.32c5.9-3.66,13.89-2.24,19,2.17L244.84,24c-3.16-2.86-7.87-4.38-11.9-2.48a5,5,0,0,0-1,8.06c3,2.7,7.17,3.47,10.68,5.35,3.21,1.53,6.1,4.37,6.41,8.09v4c-3,11.19-20,11.26-25.89,2.56,1.13-1.31,2.28-2.61,3.41-3.92,3.47,3.88,9.55,6.28,14.36,3.44,2.94-1.64,3.12-6.11.56-8.18-4.4-3.58-10.69-4.08-14.61-8.36C222.75,28.25,223.8,20.35,229,17.32Z"/>
  <path class="cls-1" d="M39.83,29.6c-2.71-9.47-13-15.82-22.68-14.09A20.68,20.68,0,0,0,0,33v4.2A20.32,20.32,0,0,0,11,53.51a20.54,20.54,0,0,0,22.54-2.57A20.3,20.3,0,0,0,39.83,29.6ZM21.07,50.34c-7.51.61-14.72-5.42-15.59-12.87C4.39,30.3,9.45,23,16.42,21.23c7.92-2.36,16.91,3.15,18.52,11.21C37.1,41,29.85,50.21,21.07,50.34Z"/>
  <path d="M205.41,39c8.21-2.63,10.84-14.56,4.25-20.17-6.14-4.61-14.33-2.49-21.44-2.8.09,13.1,0,26.19,0,39.29,1.88,0,3.75,0,5.62,0,0-5.12,0-10.23,0-15.34l5.59,0q5.92,7.71,11.89,15.37c2.37,0,4.73,0,7.1,0C214,49.88,209.78,44.38,205.41,39Zm-11.58-4.54q0-6.57,0-13.14c3.67,0,7.7-.66,11,1.32,3.37,2.16,3.32,7.67.14,10C201.87,35.2,197.57,34.33,193.83,34.43Z"/>
  <path d="M4.34,55.58c9.14,7.09,22.83,7.25,31.89-.06l3.46,4.2C28.77,68.51,11.9,68.54,1,59.75Z"/>
</svg>
