<?xml version="1.0" encoding="utf-8"?>
<!-- Generator: Adobe Illustrator 21.1.0, SVG Export Plug-In . SVG Version: 6.00 Build 0)  -->
<svg version="1.1" id="Layer_1" xmlns="http://www.w3.org/2000/svg" xmlns:xlink="http://www.w3.org/1999/xlink" x="0px" y="0px"
	 viewBox="0 0 240 400" style="enable-background:new 0 0 240 400;" xml:space="preserve">
<style type="text/css">
	.st0{fill:#0E0A09;}
	.st1{fill:#FFFFFF;}
</style>
<g>
	<path class="st0" d="M11.2,6.8c-0.4-1.6-1.5-2.4-3.3-2.4C5.8,4.4,4.4,6,4.4,8.6s1.4,4.1,3.5,4.1c1.9,0,3.1-1,3.3-2.7h3
		c-0.3,3.2-2.7,5.3-6.3,5.3c-4,0-6.6-2.7-6.6-6.8s2.5-6.8,6.6-6.8c3.6,0,6,2.1,6.3,5H11.2z"/>
	<path class="st0" d="M19.6,2.1l3.5,9.2l3.6-9.2h3.5V15h-2.6V6.4L24.3,15H22l-3.3-8.7V15h-2.6V2.1H19.6z"/>
	<path class="st0" d="M36.4,2.1H39L44,15h-3l-1-2.7h-4.8l-1,2.7h-3L36.4,2.1z M39,9.7l-1.5-4l-1.4,4H39z"/>
	<path class="st0" d="M44.9,2.1h6.5c2.6,0,4,1.7,4,4.4c0,2.7-1.5,4.5-4,4.5h-3.7v4h-2.7V2.1z M47.6,8.3h2.5c1.7,0,2.5-0.3,2.5-1.8
		c0-1.5-0.7-1.8-2.3-1.8h-2.7V8.3z"/>
	<path class="st0" d="M66.2,2.1v2.6h-3.7V15h-2.7V4.8h-3.8V2.1H66.2z"/>
	<path class="st0" d="M76.3,2.1v1.3h1.1c2.6,0,5.7,1.2,5.7,5c0,3.4-2.5,5-5.8,5h-1.1V15h-2.7v-1.5h-1.1c-3.3,0-5.7-1.6-5.7-5
		c0-3.8,3.1-5,5.7-5h1.1V2.1H76.3z M73.6,5.8h-0.8c-1.6,0-3.3,0.7-3.3,2.6c0,1.8,1.7,2.6,3.3,2.6h0.8V5.8z M76.3,11h0.8
		c1.6,0,3.3-0.7,3.3-2.5c0-1.9-1.7-2.7-3.3-2.7h-0.8V11z"/>
	<path class="st0" d="M97.5,8.6c0,4.1-2.5,6.8-6.5,6.8c-4,0-6.6-2.7-6.6-6.8s2.5-6.8,6.6-6.8C95,1.8,97.5,4.5,97.5,8.6z M87.4,8.6
		c0,2.6,1.4,4.1,3.5,4.1c2.2,0,3.5-1.6,3.5-4.1c0-2.6-1.3-4.1-3.5-4.1C88.8,4.4,87.4,6,87.4,8.6z"/>
	<path class="st0" d="M102.1,6.9h5.3V2.1h2.7V15h-2.7V9.5h-5.3V15h-2.7V2.1h2.7V6.9z"/>
</g>
<g>
	<path class="st0" d="M6.1,24.7c3.1,0,5,2.2,5,5.6S9.2,36,6.1,36c-3.1,0-5-2.2-5-5.6S3,24.7,6.1,24.7z M6.1,34.6
		c2.3,0,3.6-1.6,3.6-4.2c0-2.6-1.3-4.2-3.6-4.2c-2.3,0-3.6,1.6-3.6,4.2S3.8,34.6,6.1,34.6z"/>
	<path class="st0" d="M13,25l3.1,5l3.2-5h1.5l-4,6.2v4.5h-1.3v-4.5L11.4,25H13z"/>
	<path class="st0" d="M27.7,28.1c-0.1-1.4-0.9-2-2.4-2c-1.6,0-2.4,0.6-2.4,1.7c0,0.9,0.5,1.2,1.6,1.5l2,0.5c1.9,0.4,2.8,1.1,2.8,2.9
		c0,2.1-1.4,3.3-3.9,3.3c-2.7,0-4.1-1.3-4.1-3.9h1.4c0,1.7,1,2.5,2.9,2.5c1.6,0,2.5-0.7,2.5-1.8c0-0.9-0.5-1.3-1.6-1.5l-2.2-0.5
		c-1.8-0.4-2.6-1.2-2.6-2.8c0-2,1.3-3.2,3.8-3.2c2.3,0,3.6,1.2,3.6,3.4H27.7z"/>
	<path class="st0" d="M38.2,25v1.4h-3.5v9.3h-1.3v-9.3h-3.5V25H38.2z"/>
	<path class="st0" d="M39.2,25h7.2v1.4h-5.9v3.1H46v1.4h-5.6v3.4h6v1.4h-7.3V25z"/>
	<path class="st0" d="M48.1,25h4.8c2.1,0,3.2,1,3.2,2.9c0,1.4-0.5,2.2-1.6,2.6c1,0.2,1.3,0.7,1.4,2.6c0.1,1.4,0.1,2.3,0.4,2.6h-1.5
		c-0.1-0.3-0.2-0.9-0.2-2c-0.1-2.1-0.4-2.6-1.9-2.6h-3.4v4.6h-1.3V25z M49.4,29.9h3c1.7,0,2.5-0.4,2.5-1.8c0-1.4-0.8-1.8-2.6-1.8
		h-2.9V29.9z"/>
	<path class="st0" d="M64.1,28.1c-0.1-1.4-0.9-2-2.4-2c-1.6,0-2.4,0.6-2.4,1.7c0,0.9,0.5,1.2,1.6,1.5l2,0.5c1.9,0.4,2.8,1.1,2.8,2.9
		c0,2.1-1.4,3.3-3.9,3.3c-2.7,0-4.1-1.3-4.1-3.9H59c0,1.7,1,2.5,2.9,2.5c1.6,0,2.5-0.7,2.5-1.8c0-0.9-0.5-1.3-1.6-1.5l-2.2-0.5
		c-1.8-0.4-2.6-1.2-2.6-2.8c0-2,1.3-3.2,3.8-3.2c2.3,0,3.6,1.2,3.6,3.4H64.1z"/>
	<path class="st0" d="M72.8,35.7h-1.3V25h4.2c2.2,0,3.3,1,3.3,3.1c0,2.2-1.1,3.1-3.4,3.1h-2.9V35.7z M72.8,30.1h2.4
		c1.8,0,2.6-0.5,2.6-1.8c0-1.5-0.8-1.9-2.5-1.9h-2.5V30.1z"/>
	<path class="st0" d="M83,25h1.3l4,10.7H87l-1.2-3h-4.6l-1.2,3h-1.4L83,25z M85.3,31.3l-1.7-4.5l-1.8,4.5H85.3z"/>
	<path class="st0" d="M93.7,36c-3.1,0-5-2.2-5-5.6s1.9-5.6,5-5.6c2.5,0,4.3,1.7,4.5,4.2h-1.3c-0.2-1.7-1.4-2.7-3.2-2.7
		c-2.3,0-3.6,1.6-3.6,4.2s1.3,4.2,3.6,4.2c1.8,0,3-1.2,3.3-3h1.3C98,34.2,96.2,36,93.7,36z"/>
	<path class="st0" d="M101.1,35.7h-1.3V25h1.3V35.7z"/>
	<path class="st0" d="M110.2,25v1.4h-5.6v3.1h5v1.4h-5v4.8h-1.3V25H110.2z"/>
	<path class="st0" d="M112.8,35.7h-1.3V25h1.3V35.7z"/>
	<path class="st0" d="M119.4,36c-3.1,0-5-2.2-5-5.6s1.9-5.6,5-5.6c2.5,0,4.3,1.7,4.5,4.2h-1.3c-0.2-1.7-1.4-2.7-3.2-2.7
		c-2.3,0-3.6,1.6-3.6,4.2s1.3,4.2,3.6,4.2c1.8,0,3-1.2,3.3-3h1.3C123.8,34.2,122,36,119.4,36z"/>
	<path class="st0" d="M129.7,25h7.2v1.4H131v3.1h5.6v1.4H131v3.4h6v1.4h-7.3V25z"/>
</g>
<g>
	<path class="st0" d="M6.3,70.7c3.1,0,5,2.2,5,5.6c0,3.4-1.9,5.6-5,5.6c-3.1,0-5-2.2-5-5.6C1.3,72.9,3.2,70.7,6.3,70.7z M6.3,80.5
		c2.3,0,3.6-1.6,3.6-4.2c0-2.6-1.3-4.2-3.6-4.2c-2.3,0-3.6,1.6-3.6,4.2S4,80.5,6.3,80.5z"/>
	<path class="st0" d="M13.1,71l3.1,5l3.2-5H21l-4,6.2v4.5h-1.3v-4.5L11.6,71H13.1z"/>
	<path class="st0" d="M27.9,74.1c-0.1-1.4-0.9-2-2.4-2S23,72.7,23,73.8c0,0.9,0.5,1.2,1.6,1.5l2,0.5c1.9,0.4,2.8,1.1,2.8,2.9
		c0,2.1-1.4,3.3-3.9,3.3c-2.7,0-4.1-1.3-4.1-3.9h1.4c0,1.7,1,2.5,2.9,2.5c1.6,0,2.5-0.7,2.5-1.8c0-0.9-0.5-1.3-1.6-1.5l-2.2-0.5
		c-1.8-0.4-2.6-1.2-2.6-2.8c0-2,1.3-3.2,3.8-3.2c2.3,0,3.6,1.2,3.6,3.4H27.9z"/>
	<path class="st0" d="M38.3,71v1.4h-3.5v9.3h-1.3v-9.3h-3.5V71H38.3z"/>
	<path class="st0" d="M39.3,71h7.2v1.4h-5.9v3.1h5.6v1.4h-5.6v3.4h6v1.4h-7.3V71z"/>
	<path class="st0" d="M48.3,71H53c2.1,0,3.2,1,3.2,2.9c0,1.4-0.5,2.2-1.6,2.6c1,0.2,1.3,0.7,1.4,2.6c0.1,1.4,0.1,2.3,0.4,2.6H55
		c-0.1-0.3-0.2-0.9-0.2-2c-0.1-2.1-0.4-2.6-1.9-2.6h-3.4v4.6h-1.3V71z M49.6,75.8h3c1.7,0,2.5-0.4,2.5-1.8c0-1.4-0.8-1.8-2.6-1.8
		h-2.9V75.8z"/>
	<path class="st0" d="M64.2,74.1c-0.1-1.4-0.9-2-2.4-2c-1.6,0-2.4,0.6-2.4,1.7c0,0.9,0.5,1.2,1.6,1.5l2,0.5c1.9,0.4,2.8,1.1,2.8,2.9
		c0,2.1-1.4,3.3-3.9,3.3c-2.7,0-4.1-1.3-4.1-3.9h1.4c0,1.7,1,2.5,2.9,2.5c1.6,0,2.5-0.7,2.5-1.8c0-0.9-0.5-1.3-1.6-1.5l-2.2-0.5
		c-1.8-0.4-2.6-1.2-2.6-2.8c0-2,1.3-3.2,3.8-3.2c2.3,0,3.6,1.2,3.6,3.4H64.2z"/>
	<path class="st0" d="M78.8,71v1.4h-3.5v9.3h-1.3v-9.3h-3.5V71H78.8z"/>
	<path class="st0" d="M85.2,72.7h-5.7v-1.4h6.8v1.4c-1.9,2.7-3.1,5.7-3.6,9h-1.5C82,77.8,83.3,74.7,85.2,72.7z"/>
	<path class="st0" d="M87.9,74.8c0-2.5,1.3-3.8,3.5-3.8c2.2,0,3.4,1.3,3.4,3.3c0,2-1.2,2.9-2.6,3.7c-0.9,0.5-2.6,1.6-2.8,2.3h5.3
		v1.4h-6.9c0-2.1,1.5-3.4,3.2-4.4c1.8-1,2.6-1.6,2.6-2.9c0-1.2-0.9-2-2.1-2c-1.3,0-2.1,0.9-2.1,2.5H87.9z"/>
	<path class="st0" d="M97.9,75.2h5.5V71h1.3v10.7h-1.3v-5h-5.5v5h-1.3V71h1.3V75.2z"/>
	<path class="st0" d="M108.8,71l3.5,9.3l3.6-9.3h1.9v10.7h-1.3v-9.4l-3.6,9.4h-1.3l-3.5-9.4v9.4h-1.3V71H108.8z"/>
</g>
<g>
	<path class="st0" d="M12.7,48.1V61H10V50.7H4.7V61H2V48.1H12.7z"/>
	<path class="st0" d="M26.6,48.1V61h-2.7V50.7H19v5.1c0,3.3-0.8,5.5-3.4,5.5c-0.6,0-1.2-0.1-1.7-0.2v-2.8c0.2,0.1,0.5,0.1,0.8,0.1
		c1.2,0,1.5-0.7,1.5-3.6v-6.7H26.6z"/>
	<path class="st0" d="M32.7,48.1h2.6l5,12.9h-3l-1-2.7h-4.8l-1,2.7h-3L32.7,48.1z M35.3,55.6l-1.5-4l-1.4,4H35.3z"/>
	<path class="st0" d="M43.9,52.9h5.3v-4.8h2.7V61h-2.7v-5.4h-5.3V61h-2.7V48.1h2.7V52.9z"/>
	<path class="st0" d="M57.1,58.3H61V48.1h2.7v10.2h3.9V48.1h2.7V61h-16V48.1h2.7V58.3z"/>
	<path class="st0" d="M82.5,48.1v2.6h-7v2.1h6.2v2.6h-6.2v2.8h7V61h-9.7V48.1H82.5z"/>
	<path class="st0" d="M93.5,48.1v2.6h-3.7V61H87V50.7h-3.8v-2.6H93.5z"/>
</g>
<g>
	<path class="st1" d="M64.3,99.3c0-3.9,3.1-6.4,8.5-6.4s8.5,2.6,8.5,6.4c0,2.2-0.8,3.6-2.6,4.5c2.2,1.3,3.2,3,3.2,5.5
		c0,4.5-3.3,7.4-9.2,7.4s-9.1-2.9-9.1-7.4c0-2.6,1-4.2,3.2-5.5C65.1,103,64.3,101.6,64.3,99.3z M72.8,112c2.7,0,4.1-0.9,4.1-2.8
		c0-1.8-1.4-2.8-4.1-2.8c-2.7,0-4.1,1-4.1,2.8C68.7,111.1,70.1,112,72.8,112z M72.8,102.4c2.4,0,3.6-0.9,3.6-2.4
		c0-1.6-1.3-2.4-3.6-2.4c-2.4,0-3.6,0.9-3.6,2.4C69.2,101.5,70.5,102.4,72.8,102.4z"/>
	<path class="st1" d="M89.8,109.9c0.2,1.6,1.2,2.3,3.1,2.3c2.7,0,4.2-1.8,4.2-5.1v-0.4c-1.3,1.2-3,1.8-5,1.8c-5.1,0-8-2.9-8-7.6
		c0-4.9,3.2-8,9-8c6,0,9.2,4,9.2,11.7c0,7.9-3.4,12.1-9.7,12.1c-4.7,0-7.7-2.8-7.8-6.9H89.8z M93.1,104.3c2.4,0,3.8-1.4,3.8-3.4
		c0-2.1-1.4-3.4-3.7-3.4c-2.7,0-4.1,1.3-4.1,3.3C89,103,90.5,104.3,93.1,104.3z"/>
</g>
<g>
	<path class="st1" d="M120.4,101.9c0.7-0.9,1.8-1.4,3.3-1.4c3.2,0,5.4,2.4,5.4,5.8c0,3.4-2.2,5.8-5.4,5.8c-1.4,0-2.5-0.5-3.3-1.5
		v4.9h-2.9v-14.6h2.9V101.9z M120.4,106.3c0,1.9,1.1,3.2,2.8,3.2s2.8-1.3,2.8-3.2s-1.1-3.2-2.7-3.2
		C121.5,103.1,120.4,104.4,120.4,106.3z"/>
	<path class="st1" d="M132.8,100.9l2.5,7l2.7-7h3.2l-5.3,12.4c-0.7,1.8-1.5,2.2-3,2.2h-2v-2.6h1.7c0.7,0,1.1-0.6,1.1-1.3
		c0-0.3,0-0.5-0.2-1l-4-9.8H132.8z"/>
	<path class="st1" d="M153,97.2c-0.2,2.4-2.1,2.8-4.2,3.1c-1.7,0.3-3.3,0.7-4,2.7l0.1,0.1c0.6-0.8,1.7-1.5,3.3-1.5
		c3,0,5.5,1.3,5.5,5c0,3.2-2.2,5.4-5.9,5.4c-3.7,0-6-2.4-6-6c0-3.7,1.3-6.7,5.4-7.7c1.3-0.3,2-0.2,2.7-1.2H153z M144.9,106.8
		c0,1.7,1.1,2.8,2.8,2.8c1.7,0,2.8-1.1,2.8-2.9c0-1.7-1.1-2.8-2.8-2.8C146,104,144.9,105.1,144.9,106.8z"/>
</g>
<g>
	<path class="st1" d="M7.3,101.1H2v-3.8h0.4c3.2,0,4.9-1.1,5.5-3.8h4.2v22.7H7.3V101.1z"/>
	<path class="st1" d="M18.4,115.5c0-3.2,0.8-5.6,2.5-7.6c0.8-1,3-2.3,6.6-4.4c1.9-1.1,3.1-1.7,3.1-3.4s-1.2-2.5-3.3-2.5
		c-2.4,0-3.7,1.3-3.8,3.9h-5c0.1-5.4,3.3-8.6,8.8-8.6c5.5,0,8.6,2.7,8.6,7c0,3-1.5,4.9-4.7,6.8c-3.8,2.3-6.2,3.4-6.4,4.6h10.7v4.8
		h-17V115.5z"/>
	<path class="st1" d="M43.6,109.4c0.3,1.8,1.5,2.7,3.4,2.7c2.4,0,3.9-1.5,3.9-3.7c0-2.3-1.4-3.7-3.8-3.7c-1.5,0-2.6,0.7-3.4,2h-4.8
		L41,93.5h13.7v4.7H44.6l-0.6,3.4c1.4-1,2.9-1.5,4.5-1.5c4.5,0,7.4,3.1,7.4,7.7c0,5.5-3.3,8.8-8.8,8.8c-5.2,0-8.3-2.8-8.7-7.4H43.6z
		"/>
</g>
<g>
	<path class="st1" d="M10.1,163c4.8,0,8-2.8,8.4-6.9h-4c-0.2,2.2-1.8,3.5-4.4,3.5c-2.9,0-4.7-2-4.7-5.4c0-3.3,1.8-5.4,4.7-5.4
		c2.4,0,3.9,1.1,4.3,3.1h4c-0.4-3.8-3.5-6.5-8.3-6.5c-5.3,0-8.7,3.5-8.7,8.8S4.7,163,10.1,163z"/>
	<path class="st1" d="M24.3,159.7c-0.5,0-1.1-0.3-1.4-0.4v3.1c0.4,0.1,1.5,0.4,2.2,0.4c1.7,0,2.8-0.7,4-3.2l6.2-13.8h-4l-3.6,8.8
		l-4.6-8.8h-4l6.9,12.6C25.6,159.6,25.4,159.7,24.3,159.7z"/>
	<polygon class="st1" points="51.1,162.6 51.1,145.9 36.8,145.9 36.8,162.6 40.4,162.6 40.4,149.3 47.4,149.3 47.4,162.6 	"/>
	<polygon class="st1" points="54.3,162.6 67.2,162.6 67.2,159.2 57.9,159.2 57.9,155.5 66.2,155.5 66.2,152.1 57.9,152.1 
		57.9,149.3 67.2,149.3 67.2,145.9 54.3,145.9 	"/>
	<path class="st1" d="M73.5,157.3h5c3.4,0,5.3-2.2,5.3-5.8c0-3.5-1.9-5.7-5.3-5.7h-8.6v16.7h3.6V157.3z M73.5,149.3h3.6
		c2.2,0,3.1,0.4,3.1,2.3c0,1.8-1.1,2.3-3.3,2.3h-3.3V149.3z"/>
	<polygon class="st1" points="19.7,168.8 14.9,168.8 14.9,186.1 5.8,186.1 5.8,168.8 1.1,168.8 1.1,190.6 17.3,190.6 17.3,195.2 
		21.9,195.2 21.9,186.1 19.7,186.1 	"/>
	<polygon class="st1" points="24.8,190.6 41.7,190.6 41.7,186.1 29.6,186.1 29.6,181.4 40.3,181.4 40.3,176.9 29.6,176.9 
		29.6,173.3 41.7,173.3 41.7,168.8 24.8,168.8 	"/>
	<polygon class="st1" points="59,176.9 49.9,176.9 49.9,168.8 45.2,168.8 45.2,190.6 49.9,190.6 49.9,181.4 59,181.4 59,190.6 
		63.8,190.6 63.8,168.8 59,168.8 	"/>
	<polygon class="st1" points="68,190.6 84.9,190.6 84.9,186.1 72.8,186.1 72.8,181.4 83.5,181.4 83.5,176.9 72.8,176.9 72.8,173.3 
		84.9,173.3 84.9,168.8 68,168.8 	"/>
	<rect x="90.2" y="179.4" class="st1" width="9.6" height="10.6"/>
	<polygon class="st1" points="90.2,145.9 90.2,156 91.8,176.5 98.3,176.5 99.8,156 99.8,145.9 	"/>
	<polygon class="st1" points="39.5,130.6 45,130.6 45,140.1 48.4,140.1 48.4,127.7 36.1,127.7 36.1,140.1 39.5,140.1 	"/>
	<path class="st1" d="M57.3,140.5c4.3,0,6.8-2.6,6.8-6.7c0-4.1-2.5-6.6-6.8-6.6c-4.3,0-6.9,2.6-6.9,6.6
		C50.4,138,53,140.5,57.3,140.5z M57.3,130.2c1.9,0,3.2,1.5,3.2,3.7s-1.3,3.7-3.2,3.7c-2,0-3.2-1.5-3.2-3.7S55.3,130.2,57.3,130.2z"
		/>
</g>
<g>
	<path class="st0" d="M28.1,211.5V226h-1.6v-12.6h-7.1V226h-1.6v-14.5H28.1z"/>
	<path class="st0" d="M41.6,211.5V226H40v-12.6h-6.5v5.9c0,5.6-1.2,7-2.9,7c-0.4,0-0.8-0.1-1.1-0.1v-1.6c0.1,0,0.4,0.1,0.8,0.1
		c1.3,0,1.6-1.9,1.6-6v-7.1H41.6z"/>
	<path class="st0" d="M48.5,211.5h1.7l5.2,14.5h-1.7l-1.5-4.1h-5.9l-1.5,4.1h-1.7L48.5,211.5z M51.5,220l-2.2-6.2l-2.4,6.2H51.5z"/>
	<path class="st0" d="M58.3,217.2h7.1v-5.8H67V226h-1.6v-6.9h-7.1v6.9h-1.6v-14.5h1.6V217.2z"/>
	<path class="st0" d="M71.3,224.1h5.7v-12.6h1.6v12.6h5.7v-12.6h1.6V226H69.7v-14.5h1.6V224.1z"/>
	<path class="st0" d="M88.7,211.5h9.2v1.9h-7.6v4.2h7.1v1.9h-7.1v4.6h7.7v1.9h-9.3V211.5z"/>
	<path class="st0" d="M109.3,211.5v1.9h-4.4V226h-1.6v-12.6h-4.4v-1.9H109.3z"/>
	<path class="st0" d="M112.3,217.2h3.7c2.9,0,4.3,1.5,4.3,4.5c0,2.9-1.4,4.3-4.3,4.3h-5.4v-14.5h1.6V217.2z M112.3,224.1h3.2
		c2.2,0,3.2-0.4,3.2-2.4s-1-2.5-3.3-2.5h-3.1V224.1z M124.3,226h-1.6v-14.5h1.6V226z"/>
	<path class="st0" d="M2.6,237.5v12.4l7.3-12.4h2.2V252h-1.6v-12.4L3.2,252H1v-14.5H2.6z"/>
	<path class="st0" d="M25.8,252.4c-4,0-6.4-3-6.4-7.6s2.4-7.6,6.4-7.6c3.2,0,5.5,2.3,5.7,5.7h-1.7c-0.3-2.3-1.8-3.7-4-3.7
		c-2.9,0-4.6,2.1-4.6,5.7s1.7,5.7,4.7,5.7c2.3,0,3.9-1.6,4.2-4.1h1.7C31.4,250,29.1,252.4,25.8,252.4z"/>
	<path class="st0" d="M36.1,237.5l4.5,12.6l4.6-12.6h2.4V252H46v-12.7L41.4,252h-1.7l-4.5-12.7V252h-1.6v-14.5H36.1z"/>
	<path class="st0" d="M54.4,237.5h1.7l5.2,14.5h-1.7l-1.5-4.1h-5.9l-1.5,4.1h-1.7L54.4,237.5z M57.5,246l-2.2-6.2l-2.4,6.2H57.5z"/>
	<path class="st0" d="M64.3,252h-1.6v-14.5H68c2.9,0,4.3,1.4,4.3,4.3c0,2.9-1.4,4.3-4.3,4.3h-3.7V252z M64.3,244.3h3.1
		c2.2,0,3.3-0.7,3.3-2.5c0-2-1-2.6-3.2-2.6h-3.2V244.3z"/>
	<path class="st0" d="M83.5,237.5v1.9H79V252h-1.6v-12.6H73v-1.9H83.5z"/>
	<path class="st0" d="M92,237.5v1.2c3.8,0,6.1,2.2,6.1,5.8s-2.4,5.9-6.1,5.9v1.7h-1.6v-1.7c-3.8,0-6.1-2.3-6.1-5.9s2.4-5.8,6.1-5.8
		v-1.2H92z M90.4,240.4c-2.8,0-4.4,1.1-4.4,4.1s1.7,4.2,4.4,4.2V240.4z M92,248.6c2.8,0,4.4-1.2,4.4-4.2s-1.7-4.1-4.4-4.1V248.6z"/>
	<path class="st0" d="M106,237.1c4,0,6.4,3,6.4,7.6s-2.4,7.6-6.4,7.6c-4,0-6.4-3-6.4-7.6S102,237.1,106,237.1z M106,250.4
		c3,0,4.6-2.2,4.6-5.7c0-3.6-1.7-5.7-4.7-5.7c-2.9,0-4.6,2.1-4.6,5.7S103,250.4,106,250.4z"/>
	<path class="st0" d="M116,243.2h7.1v-5.8h1.6V252h-1.6v-6.9H116v6.9h-1.6v-14.5h1.6V243.2z"/>
	<path class="st0" d="M129,243.2h3.7c2.9,0,4.3,1.5,4.3,4.5c0,2.9-1.4,4.3-4.3,4.3h-5.4v-14.5h1.6V243.2z M129,250.1h3.2
		c2.2,0,3.2-0.4,3.2-2.4s-1-2.5-3.3-2.5H129V250.1z M141,252h-1.6v-14.5h1.6V252z"/>
</g>
<g>
	<path d="M155.4,109.9h2.5v2.4h-2.5V109.9z"/>
</g>
<g>
</g>
<g>
</g>
<g>
</g>
<g>
</g>
<g>
</g>
<g>
</g>
<g>
</g>
<g>
</g>
<g>
</g>
<g>
</g>
<g>
</g>
<g>
</g>
<g>
</g>
<g>
</g>
<g>
</g>
</svg>
